# xmcd CD database file
#
# Track frame offsets:
#	150
#	20450
#	36825
#	51947
#	65821
#	84085
#	102618
#	123351
#	147765
#	167152
#	186664
#	205365
#	224926
#	246384
#	270557
#	289195
#	304681
#	324452
#
# Disc length: 4539 seconds
#
# Revision: 0
# Processed by: cddbd v1.5.2PL0 Copyright (c) Steve Scherf et al.
# Submitted via: CDex 1.51
#
DISCID=2111b912
DTITLE=Donimican Souvenir The Latest Hits - Meren Hits
DYEAR=2004
DGENRE=Merengue
TTITLE0=SOLO TU-Club Dance
TTITLE1=JUMP-The Soca Boys
TTITLE2=LA COLITA-Los Coco
TTITLE3=MERENGUE MIX-50 Cent
TTITLE4=PARTY EN MIAMI-Mala Fe
TTITLE5=DILMEA-Papi Sanchez
TTITLE6=DALE YUCA-Mambo Con Clase
TTITLE7=TU GATO TRISTE-Anthony Santos
TTITLE8=EL PORBRE LUIS-Los Rosario
TTITLE9=LA BARRIGUITA-La Coco Band
TTITLE10=TONTO CORAZON-Rubby Perez
TTITLE11=OBSECION-Adventure
TTITLE12=VUELVO OTRA VEZ {Frank Reyes - VUELVO OTRA VEZ {Frank Reyes}
TTITLE13=LA JAULA DE ORO - LA JAULA DE ORO
TTITLE14=CARTA DE VERANO-Joe Veras
TTITLE15=SERPIENTE-Elvis Martinez
TTITLE16=AHORA {Anthony Santos - AHORA {Anthony Santos}
TTITLE17=ARRANCA EN FA-Sonora Carrusel
EXTD=YEAR: 2004
EXTT0=
EXTT1=
EXTT2=
EXTT3=
EXTT4=
EXTT5=
EXTT6=
EXTT7=
EXTT8=
EXTT9=
EXTT10=
EXTT11=
EXTT12=
EXTT13=
EXTT14=
EXTT15=
EXTT16=
EXTT17=
PLAYORDER=
